<svg width="150" height="150" viewBox="0 0 205 205" fill="none" xmlns="http://www.w3.org/2000/svg">
<path d="M102.28 204.56C158.768 204.56 204.56 158.768 204.56 102.28C204.56 45.7923 158.768 0 102.28 0C45.7923 0 0 45.7923 0 102.28C0 158.768 45.7923 204.56 102.28 204.56Z" fill="#4C1D95"/>
<mask id="mask0_6_232" style="mask-type:luminance" maskUnits="userSpaceOnUse" x="0" y="0" width="205" height="205">
<path d="M102.28 204.56C158.768 204.56 204.56 158.768 204.56 102.28C204.56 45.7923 158.768 0 102.28 0C45.7923 0 0 45.7923 0 102.28C0 158.768 45.7923 204.56 102.28 204.56Z" fill="white"/>
</mask>
<g mask="url(#mask0_6_232)">
<path d="M160.53 178.76C159.53 171.67 158.47 165.19 155.53 158.39C152.31 150.92 146.06 136.32 138.53 132.93C133.23 136.04 126.76 136.57 120.88 138.33C115.53 139.94 105.98 141.33 101.47 145.88C96.96 141.32 87.4699 139.94 82.0599 138.33C76.1799 136.57 69.7099 136.04 64.4099 132.93C56.8499 136.32 50.6099 150.93 47.4099 158.39C44.4699 165.19 43.4099 171.67 42.4099 178.76C41.7199 183.59 39.0499 191.62 43.1799 195.5C46.9599 199.05 52.1799 206.83 56.9899 207.39C63.5699 208.17 65.8699 216.83 72.4999 217.19C80.2399 217.62 93.61 219.44 101.08 218.83C108.55 219.44 121.08 217.62 128.84 217.19C135.48 216.83 144.3 213.07 150.89 212.29C155.66 211.73 159.35 205.24 163.14 201.68C167.24 197.82 161.22 183.59 160.53 178.76Z" fill="#DDD6FE"/>
<path d="M94.0099 78.9001C89.0099 68.4301 82.3299 56.3601 73.6199 47.8401C69.2899 43.6101 57.2399 34.45 50.6799 35.63C43.9399 36.85 53.4799 52.24 55.5799 56.37C60.2377 65.8794 66.1873 74.6995 73.2599 82.58C76.1999 85.79 78.9999 91.58 83.3299 88.67C86.0099 86.89 90.8899 81.6801 94.0099 78.9001Z" fill="#DDD6FE"/>
<mask id="mask1_6_232" style="mask-type:luminance" maskUnits="userSpaceOnUse" x="48" y="35" width="47" height="55">
<path d="M94.0099 78.9001C89.0099 68.4301 82.3299 56.3601 73.6199 47.8401C69.2899 43.6101 57.2399 34.45 50.6799 35.63C43.9399 36.85 53.4799 52.24 55.5799 56.37C60.2377 65.8794 66.1873 74.6995 73.2599 82.58C76.1999 85.79 78.9999 91.58 83.3299 88.67C86.0099 86.89 90.8899 81.6801 94.0099 78.9001Z" fill="white"/>
</mask>
<g mask="url(#mask1_6_232)">
<path d="M45.1099 42.45C58.1099 46.7 69.4599 58.84 75.0099 70.97C77.2299 75.82 78.8499 80.66 78.9399 85.97C78.9399 88.71 78.8099 91.8699 76.9399 94.0399C71.8699 99.7799 66.6599 90.3499 63.5699 86.5099C56.5699 77.7699 52.0799 67.73 47.3499 57.7C45.3899 53.61 42.3899 46.88 45.1099 42.45Z" fill="#A78BFA"/>
</g>
<path d="M120.63 144.87C120.09 141.87 118.28 139.14 116.63 136.65C114.15 132.96 107.55 120.76 102.1 123.41C101.879 123.522 101.669 123.653 101.47 123.8C101.273 123.655 101.066 123.525 100.85 123.41C95.4 120.76 88.85 132.96 86.32 136.65C84.64 139.14 82.83 141.86 82.32 144.87C82.07 146.28 82.46 147.74 81.74 148.53C82.64 151.74 88.01 154.36 90.97 155.03C94.4246 155.848 97.9452 156.356 101.49 156.55C105.035 156.357 108.555 155.848 112.01 155.03C115.01 154.36 120.35 151.74 121.25 148.53C120.49 147.74 120.88 146.28 120.63 144.87Z" fill="#A78BFA"/>
<path d="M95.8799 134.82C95.3299 137.61 94.6399 140.4 94.0999 143.2C93.6899 145.35 93.0999 147.98 94.0299 150.05C94.5399 151.16 94.8499 151.42 96.0299 151.52C96.8699 151.58 97.7199 151.6 98.5599 151.67C99.3999 151.74 100.19 152.02 100.78 151.45C101.78 150.45 101.65 148.31 101.78 147.06C102.05 143.71 101.93 140.32 102.13 136.96C102.22 135.57 102.22 134.27 100.58 133.79C99.2199 133.34 96.8299 133.42 95.8799 134.82Z" fill="white"/>
<path d="M101.58 134.28C101.58 136.08 101.84 137.85 101.86 139.64C101.828 141.205 101.922 142.77 102.14 144.32C102.34 145.48 102.5 146.65 102.69 147.81C102.715 148.566 102.924 149.304 103.3 149.96C104.09 150.81 106.14 150.48 107.11 150.21C108.08 149.94 108.67 149.64 108.88 148.76C109.055 147.625 109.035 146.468 108.82 145.34C108.67 143.81 108.42 142.27 108.12 140.77C107.82 139.27 107.52 137.77 107.06 136.29C106.91 135.546 106.565 134.856 106.06 134.29C105.382 133.889 104.609 133.677 103.821 133.675C103.034 133.674 102.26 133.882 101.58 134.28Z" fill="white"/>
<path d="M108.9 78.9001C113.9 68.4301 120.58 56.3601 129.28 47.8401C133.61 43.6101 145.67 34.45 152.22 35.63C158.96 36.85 149.42 52.24 147.32 56.37C142.662 65.8794 136.713 74.6995 129.64 82.58C126.7 85.79 123.9 91.58 119.58 88.67C116.89 86.89 112.02 81.6801 108.9 78.9001Z" fill="#DDD6FE"/>
<mask id="mask2_6_232" style="mask-type:luminance" maskUnits="userSpaceOnUse" x="108" y="35" width="47" height="55">
<path d="M108.9 78.9001C113.9 68.4301 120.58 56.3601 129.28 47.8401C133.61 43.6101 145.67 34.45 152.22 35.63C158.96 36.85 149.42 52.24 147.32 56.37C142.662 65.8794 136.713 74.6995 129.64 82.58C126.7 85.79 123.9 91.58 119.58 88.67C116.89 86.89 112.02 81.6801 108.9 78.9001Z" fill="white"/>
</mask>
<g mask="url(#mask2_6_232)">
<path d="M157.79 42.45C144.79 46.7 133.44 58.84 127.89 70.97C125.68 75.82 124.05 80.66 123.96 85.97C123.96 88.71 124.1 91.8699 126.01 94.0399C131.08 99.7799 136.28 90.3499 139.37 86.5099C146.37 77.7699 150.87 67.73 155.59 57.7C157.5 53.61 160.48 46.88 157.79 42.45Z" fill="#A78BFA"/>
</g>
<path d="M142.64 123.24C140.43 116.78 135.04 112.54 130.82 107.17C126.26 101.36 128.01 93.17 124.51 86.79C122.09 82.4 118.78 77.86 114.13 75.79C110.659 74.3767 106.957 73.6206 103.21 73.56C103.215 73.5369 103.215 73.5131 103.21 73.49C102.63 73.49 102.04 73.49 101.46 73.49C100.88 73.49 100.3 73.49 99.7099 73.49C99.7099 73.49 99.7099 73.49 99.7099 73.56C95.9579 73.6286 92.2514 74.395 88.7799 75.82C84.1299 77.82 80.7799 82.39 78.3999 86.82C74.8999 93.18 77.0899 101.59 72.5199 107.39C68.2999 112.76 63.0999 116.23 60.8999 122.69C58.8999 128.48 58.6299 136.11 62.2599 141.09C64.227 143.826 66.7453 146.119 69.6526 147.822C72.5599 149.526 75.7917 150.601 79.1399 150.98C90.2999 152.19 98.2899 144.64 101.45 134.98C104.62 144.62 112.6 152.17 123.76 150.98C130.36 150.26 136.19 146.38 140.31 140.71C142.057 138.192 143.18 135.294 143.586 132.257C143.991 129.219 143.667 126.128 142.64 123.24Z" fill="#DDD6FE"/>
<path d="M101.56 130.18C101.56 128.62 99.81 127.41 98.67 126.65C97.91 126.14 97.05 125.84 96.33 125.27C95.91 124.94 94.92 124 95.18 123.4C95.59 122.49 98.23 122.77 98.99 122.77C100.62 122.77 102.28 122.67 103.9 122.77C104.9 122.77 108.76 122.37 108 124.31C107.35 126.01 104.7 126.63 103.38 127.63C102.777 128.028 102.288 128.576 101.96 129.22C101.77 129.59 101.81 130.22 101.56 130.18Z" fill="#4C1D95"/>
</g>
</svg>
