<svg xmlns="http://www.w3.org/2000/svg" fill="none" viewBox="0 0 48 48" height="32" width="32"><path fill="#3a158e" fill-rule="evenodd" d="M16.1868 3.5C14.3198 3.5 12.5414 4.45077 11.5773 6.12133C10.4045 8.15366 8.52681 11.6302 6.94043 15.5933C7.8206 15.5815 8.9039 15.5688 10.2006 15.5566C11.6025 12.255 13.158 9.38425 14.1757 7.62085C14.5734 6.93166 15.3293 6.5 16.1868 6.5H19.0008C19.8292 6.5 20.5008 5.82843 20.5008 5C20.5008 4.17157 19.8292 3.5 19.0008 3.5H16.1868ZM36.4235 6.12133C37.5963 8.15366 39.474 11.6302 41.0604 15.5934C40.1802 15.5815 39.0969 15.5688 37.8002 15.5566C36.3983 12.255 34.8428 9.38425 33.8251 7.62085C33.4274 6.93166 32.6715 6.5 31.814 6.5H29C28.1716 6.5 27.5 5.82843 27.5 5C27.5 4.17157 28.1716 3.5 29 3.5H31.814C33.681 3.5 35.4594 4.45077 36.4235 6.12133ZM24.0004 24.5005C14.3223 24.5005 8.46094 24.4323 5.75704 24.39C5.4737 24.3855 5.15503 24.3579 4.82324 24.2971C4.92026 25.161 5.04139 26.1729 5.18915 27.2962C5.67214 30.9683 6.44248 35.8544 7.59111 40.6715C8.27001 43.5186 10.6398 45.6266 13.561 45.9405C16.1162 46.2152 19.784 46.5005 24.0009 46.5005C28.2178 46.5005 31.8856 46.2152 34.4409 45.9405C37.362 45.6266 39.7318 43.5186 40.4107 40.6715C41.5593 35.8544 42.3297 30.9683 42.8127 27.2962C42.9604 26.1728 43.0816 25.1609 43.1786 24.2969C42.8464 24.3579 42.5274 24.3855 42.2437 24.39C39.5398 24.4323 33.6784 24.5005 24.0004 24.5005Z" clip-rule="evenodd"></path><path fill="#af9ffc" d="M24 24.5C14.322 24.5 8.46058 24.4318 5.75668 24.3895C4.41272 24.3685 2.274 23.8257 1.7108 21.6916C1.58126 21.2008 1.5 20.6374 1.5 20C1.5 19.3626 1.58126 18.7992 1.7108 18.3084C2.27401 16.1743 4.41272 15.6315 5.75668 15.6105C8.46058 15.5682 14.322 15.5 24 15.5C33.678 15.5 39.5394 15.5682 42.2433 15.6105C43.5873 15.6315 45.726 16.1743 46.2892 18.3084C46.4187 18.7992 46.5 19.3626 46.5 20C46.5 20.6374 46.4187 21.2008 46.2892 21.6916C45.726 23.8257 43.5873 24.3685 42.2433 24.3895C39.5394 24.4318 33.678 24.5 24 24.5Z"></path><path fill="#af9ffc" d="M24 8.5C25.6058 8.5 26.7781 8.47809 27.5687 8.45493C28.912 8.41558 30.3527 7.49218 30.4731 5.79426C30.4899 5.55613 30.5 5.2918 30.5 5C30.5 4.7082 30.4899 4.44387 30.4731 4.20574C30.3527 2.50782 28.912 1.58442 27.5687 1.54507C26.7781 1.52191 25.6058 1.5 24 1.5C22.3942 1.5 21.2219 1.52192 20.4313 1.54507C19.088 1.58442 17.6473 2.50782 17.5269 4.20574C17.5101 4.44387 17.5 4.7082 17.5 5C17.5 5.2918 17.5101 5.55614 17.5269 5.79426C17.6473 7.49218 19.088 8.41558 20.4313 8.45493C21.2219 8.47809 22.3942 8.5 24 8.5Z"></path><path fill="#af9ffc" fill-rule="evenodd" d="M15.8141 29.5117C16.6361 29.409 17.3858 29.9921 17.4886 30.8141L18.4886 38.8141C18.5913 39.6361 18.0082 40.3858 17.1862 40.4886C16.3642 40.5913 15.6145 40.0082 15.5117 39.1862L14.5117 31.1862C14.409 30.3642 14.9921 29.6145 15.8141 29.5117Z" clip-rule="evenodd"></path><path fill="#af9ffc" fill-rule="evenodd" d="M32.1859 29.5117C31.3639 29.409 30.6142 29.9921 30.5114 30.8141L29.5114 38.8141C29.4087 39.6361 29.9918 40.3858 30.8138 40.4886C31.6358 40.5913 32.3855 40.0082 32.4883 39.1862L33.4883 31.1862C33.591 30.3642 33.0079 29.6145 32.1859 29.5117Z" clip-rule="evenodd"></path><path fill="#af9ffc" fill-rule="evenodd" d="M24 29.5C24.8284 29.5 25.5 30.1716 25.5 31L25.5 39C25.5 39.8284 24.8284 40.5 24 40.5C23.1716 40.5 22.5 39.8284 22.5 39L22.5 31C22.5 30.1716 23.1716 29.5 24 29.5Z" clip-rule="evenodd"></path></svg>